<svg xmlns="http://www.w3.org/2000/svg" width="25" height="23"><defs><style>.cls-1 { fill: #333; fill-rule: evenodd; filter: url(#filter); }</style><filter id="filter" width="25" height="23" x="5156" y="34" filterUnits="userSpaceOnUse"><feFlood result="flood" flood-color="#5a534c"/><feComposite result="composite" operator="in" in2="SourceGraphic"/><feBlend result="blend" in2="SourceGraphic"/></filter></defs><path id="CART" d="M5164.74,52.3a2.353,2.353,0,1,0,2.39,2.354A2.381,2.381,0,0,0,5164.74,52.3Zm-2.07-1.509c16.66,0,16.26-.01,16.26-0.01V48.457h-12.17a0.848,0.848,0,0,1-.64-0.876c0-.315-0.83-0.63-0.22-0.854s13.15-.426,13.15-0.426l1.94-8.884-19.3-.465-0.73-2.959h-4.97l0.8,2.307,2.34,0.045M5176.15,52.3a2.353,2.353,0,1,0,2.39,2.354A2.381,2.381,0,0,0,5176.15,52.3Z" class="cls-1" transform="translate(-5156 -34)"/></svg>
