<svg xmlns="http://www.w3.org/2000/svg" width="82" height="70"><path fill="#fff" d="M48.23 52.98s15.44-31.11 28.46-39.37c0 0-6.27 18.47-28.46 39.37zm-1.92 2.92s18.33-17.5 25.56-23.33c0 0-11.58 17.5-25.56 23.33zm.96 1.46S73.8 40.34 82 32.57c0 0-12.54 14.58-34.73 24.79zm-2.41-2.43a61.572 61.572 0 0 0 3.86-15.56c.96-8.75 7.23-27.22 7.23-27.22s1.93 17.01-3.37 27.22-7.72 15.56-7.72 15.56zm-1.45-3.89S39.07 17.5 44.86 0c0 0 4.82 35.48-.48 53.47zm0 6.8S32.8 39.37 34.25 21.39c0 0 5.3 4.86 9.16 36.45zm-4.82-4.37s-17.37-20.9-19.3-44.72c0 0 13.99 24.3 19.3 44.72zm-.48 1.46S15.92 39.37 9.16 26.25c0 0 13.51 6.32 28.95 28.68zm1.44 2.43L0 35s7.72 10.69 39.55 22.36zm-.96 2.43h10.13L48.23 70h-8.68z"/></svg>
