<svg xmlns="http://www.w3.org/2000/svg" id="LOGO" width="398.78" height="50"><defs><style>.cls-1 { fill: #326600; } .cls-1, .cls-2 { fill-rule: evenodd; } .cls-2 { filter: url(#filter); }</style><filter id="filter" width="335.94" height="27.406" x="2926.84" y="78.188" filterUnits="userSpaceOnUse"><feFlood result="flood" flood-color="#333"/><feComposite result="composite" operator="in" in2="SourceGraphic"/><feBlend result="blend" in2="SourceGraphic"/></filter></defs><path d="M2898.68,100.836s11.11-22.216,20.48-28.117C2919.16,72.719,2914.65,85.91,2898.68,100.836Zm-1.38,2.083s13.18-12.5,18.39-16.662C2915.69,86.257,2907.36,98.753,2897.3,102.919Zm0.69,1.041s19.08-12.15,24.98-17.7A79.146,79.146,0,0,1,2897.99,103.96Zm-1.74-1.736a43.2,43.2,0,0,0,2.78-11.108c0.69-6.248,5.21-19.439,5.21-19.439s1.38,12.15-2.43,19.439S2896.25,102.224,2896.25,102.224Zm-1.04-2.776S2892.09,75.5,2896.25,63c0,0,3.47,25.34-.34,38.183Zm0,4.86s-7.63-13.192-6.59-26.035C2888.62,78.273,2892.44,81.744,2895.21,104.308Zm-3.47-3.125s-12.49-14.927-13.88-31.936C2877.86,69.247,2887.93,86.6,2891.74,101.183Zm-0.34,1.041s-15.96-11.108-20.82-20.48C2870.58,81.744,2880.29,86.257,2891.4,102.224Zm1.04,1.736-28.45-15.968S2869.54,95.629,2892.44,103.96Zm-0.7,1.736h7.29l-0.35,7.289h-6.24Z" class="cls-1" transform="translate(-2864 -63)"/><path id="Natural_Area_Rugs" d="M2927.25,105.221l7.8-.24,0.16-1.12-3.56-.24a12.365,12.365,0,0,0,.19-2.159V83.307a23.9,23.9,0,0,0,1.43,1.919L2950.1,105.3h1.03V83.067a4.06,4.06,0,0,1,2.74-4.079l-0.2-.56h-7.53v1.12c3.21,0.32,3.25,1.24,3.25,3V99.183c-0.43-.64-1.07-1.48-1.58-2.119l-14.34-16.715a12.479,12.479,0,0,1-1.47-2.079s-2.02.16-3.96,0.16h-1.19v1c2.62,0.48,3.25,1.28,3.25,4.039v18c0,1.439-1.07,2.279-2.85,2.479v1.28Zm28-.12h6.06l0.16-1-2.81-.44,1.74-4.359,0.52-.36h6.65l1.43,3.639c0.39,1.079-.44,1.4-1.31,1.4v1.24s4-.12,5.23-0.12h1.54l0.16-1c-1.03-.16-1.62-0.32-2.53-2.759l-6.26-15.756-1.59.36-6.81,16.476a2.393,2.393,0,0,1-2.18,1.639v1.04ZM2965,92.225l1.98,5.2h-5.82l3.05-7.638A22.392,22.392,0,0,0,2965,92.225Zm14.89,13,8.87-.2,0.12-1.04-3.37-.32a9.181,9.181,0,0,0,.2-1.919V87.666l0.4-.4h2.41c2.26,0,3.25.56,3.17,3.519h1.23l0.91-5.119a13.688,13.688,0,0,1-2.14.16h-14.33a11.191,11.191,0,0,1-1.99-.16l-0.91,5.119h1.27c1.15-2.959,2.06-3.519,4-3.519h2.54v14.476a2.352,2.352,0,0,1-2.38,2.319v1.16Zm17.94-6.878c0,5.4,4.2,7.238,8.2,7.238,4.52,0,8.2-2.4,8.2-7.358V89.985a3.6,3.6,0,0,1,2.26-3.679l-0.16-.48h-6.5v1c2.66,0.28,2.7,1.12,2.7,2.679v8.8a5.484,5.484,0,0,1-5.67,5.718c-2.81,0-5.66-1.759-5.66-5.918V90.265a8.219,8.219,0,0,1,.95-4.439l-0.16-.16a24.062,24.062,0,0,1-3.8.16h-2.77v0.88c2.41,0.56,2.41.92,2.41,2.679v8.957Zm21.67,6.878,8.43-.24,0.16-1-3.01-.36a11.378,11.378,0,0,0,.16-1.919V97.223l0.4-.4h1.66l3.49,5a14.572,14.572,0,0,1,1.74,3.159l0.12,0.12h5.11l0.16-1.2c-0.95-.08-1.67-0.08-2.78-1.679l-4.31-6.159v-0.52c1.46-.88,3.72-2.559,3.72-5.079,0-2.4-2.06-4.639-7.65-4.639h-7.44v0.88c2.41,0.56,2.41.92,2.41,2.679V101.7a2.331,2.331,0,0,1-2.37,2.359v1.16Zm5.74-9.837V87.666l0.4-.4h0.83c3.25,0,4.51,1.84,4.51,4.079,0,2.719-1.86,4.039-3.44,4.039h-2.3Zm12.91,9.717h6.06l0.16-1-2.81-.44,1.74-4.359,0.52-.36h6.65l1.43,3.639c0.39,1.079-.44,1.4-1.31,1.4v1.24s4-.12,5.23-0.12h1.54l0.16-1c-1.03-.16-1.62-0.32-2.53-2.759l-6.26-15.756-1.59.36-6.81,16.476a2.393,2.393,0,0,1-2.18,1.639v1.04Zm9.75-12.876,1.98,5.2h-5.82l3.04-7.638A24.843,24.843,0,0,0,3047.9,92.225Zm11.8,13s3.25-.12,5.03-0.12h9.51l1.22-5.479h-1.26c-1.51,2.96-2.1,4.039-4.56,4.039h-4.35a9.5,9.5,0,0,0,.15-1.639V90.265a8.219,8.219,0,0,1,.95-4.439l-0.15-.16a24.323,24.323,0,0,1-3.81.16h-2.77v0.88c2.42,0.56,2.42.92,2.42,2.679V101.7a2.334,2.334,0,0,1-2.38,2.359v1.16Zm24.68-.12h7.32l0.16-1.12-3.36-.48,2.73-7.2,0.51-.4h9.47l2.42,6.4c0.43,1.2-.56,1.519-1.67,1.559v1.36s4.56-.12,6.02-0.12h1.71l0.15-1.08c-1.22-.2-1.94-0.4-3.01-3.119l-8.79-22.714-1.62.36-9.39,23.594a2.841,2.841,0,0,1-2.65,1.8v1.16Zm12.79-19.995,3.41,9.117h-8.6l4.4-11.557A24.088,24.088,0,0,0,3097.17,85.107Zm14.3,20.115,8.43-.24,0.16-1-3.01-.36a11.378,11.378,0,0,0,.16-1.919V97.223l0.4-.4h1.66l3.49,5a14.572,14.572,0,0,1,1.74,3.159l0.12,0.12h5.11l0.16-1.2c-0.96-.08-1.67-0.08-2.78-1.679l-4.31-6.159v-0.52c1.46-.88,3.72-2.559,3.72-5.079,0-2.4-2.06-4.639-7.65-4.639h-7.44v0.88c2.41,0.56,2.41.92,2.41,2.679V101.7a2.331,2.331,0,0,1-2.37,2.359v1.16Zm5.74-9.837V87.666l0.4-.4h0.83c3.25,0,4.51,1.84,4.51,4.079,0,2.719-1.86,4.039-3.44,4.039h-2.3Zm14.7,9.837s3.24-.12,5.03-0.12h9.3l1.11-4.879h-1.27c-1.5,3-1.86,3.439-4.39,3.439h-4.2a8.927,8.927,0,0,0,.16-1.639v-5.6l0.39-.4h4.52v2.159h1.7V92.7l-1.38.24-0.24,1.639h-4.99V87.626l0.39-.36h3.29c2.38,0,3.33.48,3.21,3.479h1.27l0.95-5.039a21.859,21.859,0,0,1-2.26.12h-12.79v0.88c2.14,0.52,2.57.84,2.57,2.159V101.7a2.331,2.331,0,0,1-2.37,2.359v1.16Zm17.15-.12h6.06l0.15-1-2.81-.44,1.74-4.359,0.52-.36h6.65l1.43,3.639c0.4,1.079-.44,1.4-1.31,1.4v1.24s4-.12,5.23-0.12h1.55l0.15-1c-1.03-.16-1.62-0.32-2.53-2.759l-6.26-15.756-1.58.36-6.82,16.476a2.378,2.378,0,0,1-2.17,1.639v1.04Zm9.74-12.876,1.98,5.2h-5.82l3.05-7.638A22.392,22.392,0,0,0,3158.8,92.225Zm20.99,13,9.55-.24,0.16-1.12-3.57-.36a10.18,10.18,0,0,0,.2-2.039v-7.8l0.39-.4h2.9l4.91,7.318a27.854,27.854,0,0,1,2.45,4.4l0.16,0.12h5.74l0.16-1.28-0.43-.04c-1.03-.08-1.82-0.16-3.53-2.639l-5.7-8.438v-0.52c1.9-1,5.23-3.559,5.23-7.318,0-3.479-2.7-6.438-9.83-6.438h-9.18v1c3.04,0.6,3.24,1,3.24,2.919v19.115c0,1.36-1.11,2.279-2.85,2.479v1.28Zm6.34-13.516V80.388l0.39-.4h1.47c4.87,0,6.57,2.879,6.57,5.918,0,3.879-2.73,5.8-5.1,5.8h-3.33Zm19.72,6.638c0,5.4,4.2,7.238,8.2,7.238,4.52,0,8.2-2.4,8.2-7.358V89.985a3.6,3.6,0,0,1,2.26-3.679l-0.16-.48h-6.5v1c2.66,0.28,2.7,1.12,2.7,2.679v8.8a5.484,5.484,0,0,1-5.67,5.718c-2.81,0-5.66-1.759-5.66-5.918V90.265a8.219,8.219,0,0,1,.95-4.439l-0.16-.16a24.062,24.062,0,0,1-3.8.16h-2.77v0.88c2.41,0.56,2.41.92,2.41,2.679v8.957Zm21.51-2.479c0,6.358,5.03,9.718,11.05,9.718a68.955,68.955,0,0,0,7.01-.72v-4.119c0-2.759,1.19-3.4,1.19-3.4l-0.16-.52h-7.4V97.7c2.93,0.48,3.08.92,3.08,2.639v3.439a12.721,12.721,0,0,1-2.65.28c-5.07,0-8.36-3.719-8.36-8.877,0-4.519,2.5-8.4,7.45-8.4,2.3,0,4.95.68,4.99,3.839h1.11l0.87-4.639a65.674,65.674,0,0,0-6.81-.64C3230.89,85.346,3227.36,90.665,3227.36,95.864Zm22.58,6.8c0,2.079,3.32,2.919,6.02,2.919,3.8,0,6.81-1.8,6.81-5.359,0-6.358-9.31-6.078-9.31-10.757,0-1.76,1.39-2.679,3.33-2.679,1.78,0,3.52.76,3.29,3.839h1.26l0.95-4.719a35.9,35.9,0,0,0-5.1-.56c-4.56,0-6.9,2.319-6.9,5.319,0,6.078,9.35,6.158,9.35,10.837,0,1.919-1.66,2.639-3.41,2.639-2.02,0-4.23-.88-4.23-4.559h-1.27A15.908,15.908,0,0,0,3249.94,102.662Z" data-name="Natural Area Rugs" class="cls-2" transform="translate(-2864 -63)"/></svg>
