<svg xmlns="http://www.w3.org/2000/svg" id="Logo" width="146.63" height="40"><defs><style>.cls-1 { fill: #326600; } .cls-1, .cls-2 { fill-rule: evenodd; } .cls-2 { filter: url(#filter); }</style><filter id="filter" width="98.1" height="36.031" x="5008.53" y="33.906" filterUnits="userSpaceOnUse"><feFlood result="flood" flood-color="#333"/><feComposite result="composite" operator="in" in2="SourceGraphic"/><feBlend result="blend" in2="SourceGraphic"/></filter></defs><path id="Shape_404_copy_2" d="M4987.73,61.269s8.88-17.773,16.37-22.494C5004.1,38.775,5000.49,49.328,4987.73,61.269Zm-1.11,1.666s10.54-10,14.7-13.33C5001.32,49.605,4994.67,59.6,4986.62,62.935Zm0.56,0.833s15.25-9.72,19.97-14.163A63.256,63.256,0,0,1,4987.18,63.768Zm-1.39-1.388a35.048,35.048,0,0,0,2.22-8.886c0.55-5,4.16-15.551,4.16-15.551s1.11,9.719-1.94,15.551S4985.79,62.379,4985.79,62.379Zm-0.83-2.221S4982.46,41,4985.79,31c0,0,2.77,20.272-.28,30.547Zm0,3.887s-6.11-10.553-5.28-20.828C4979.68,43.218,4982.74,46,4984.96,64.046Zm-2.78-2.5s-9.99-11.941-11.1-25.549C4971.08,36,4979.13,49.883,4982.18,61.546Zm-0.28.833S4969.14,53.493,4965.26,46C4965.26,46,4973.03,49.605,4981.9,62.379Zm0.84,1.388-22.75-12.774S4964.43,57.1,4982.74,63.768Zm-0.56,1.389h5.83l-0.28,5.832h-4.99Z" data-name="Shape 404 copy 2" class="cls-1" transform="translate(-4960 -31)"/><path id="Natural_Area_Rugs" d="M5010.02,48.747l4.3-.132L5014.4,48l-1.96-.132a6.485,6.485,0,0,0,.11-1.188v-9.99a10.894,10.894,0,0,0,.79,1.056l9.25,11.046h0.57V36.556a2.232,2.232,0,0,1,1.5-2.244L5024.55,34h-4.14V34.62c1.77,0.176,1.79.682,1.79,1.65v9.154c-0.24-.352-0.59-0.814-0.87-1.166l-7.89-9.2a6.782,6.782,0,0,1-.8-1.144s-1.11.088-2.18,0.088h-0.65v0.55c1.43,0.264,1.78.7,1.78,2.223v9.9a1.447,1.447,0,0,1-1.57,1.364v0.7Zm15.4-.066h3.33l0.09-.55-1.55-.242,0.96-2.4,0.29-.2h3.65l0.79,2c0.22,0.594-.24.77-0.72,0.77v0.682s2.2-.066,2.88-0.066h0.84l0.09-.55c-0.56-.088-0.89-0.176-1.39-1.518l-3.44-8.67-0.87.2-3.75,9.066a1.318,1.318,0,0,1-1.2.9v0.572Zm5.36-7.086,1.09,2.861h-3.2l1.67-4.2C5030.45,40.671,5030.63,41.2,5030.78,41.6Zm8.19,7.151,4.88-.11,0.06-.572-1.85-.176a5.06,5.06,0,0,0,.11-1.056V39.087l0.22-.22h1.33c1.24,0,1.78.308,1.74,1.937h0.67l0.5-2.817a7.48,7.48,0,0,1-1.17.088h-7.89a6.131,6.131,0,0,1-1.09-.088l-0.5,2.817h0.7c0.63-1.628,1.13-1.937,2.2-1.937h1.39v7.966a1.291,1.291,0,0,1-1.3,1.276v0.638Zm9.86-3.785c0,2.971,2.31,3.983,4.51,3.983,2.48,0,4.51-1.32,4.51-4.049V40.363a1.982,1.982,0,0,1,1.24-2.024l-0.09-.264h-3.57v0.55c1.46,0.154,1.48.616,1.48,1.474V44.94a3.117,3.117,0,1,1-6.23-.11V40.517a4.475,4.475,0,0,1,.53-2.443l-0.09-.088a13.36,13.36,0,0,1-2.09.088h-1.53v0.484c1.33,0.308,1.33.506,1.33,1.474v4.929Zm11.91,3.785,4.64-.132,0.09-.55-1.66-.2a6.136,6.136,0,0,0,.09-1.056V44.346l0.22-.22h0.91l1.92,2.751a7.865,7.865,0,0,1,.96,1.738l0.06,0.066h2.81l0.09-.66a1.643,1.643,0,0,1-1.52-.924l-2.38-3.389V43.422c0.81-.484,2.05-1.408,2.05-2.795,0-1.32-1.13-2.553-4.2-2.553h-4.1v0.484c1.33,0.308,1.33.506,1.33,1.474V46.81a1.285,1.285,0,0,1-1.31,1.3v0.638Zm3.16-5.413V39.087l0.22-.22h0.46c1.78,0,2.48,1.012,2.48,2.245a2.019,2.019,0,0,1-1.9,2.222h-1.26Zm7.1,5.347h3.33l0.09-.55-1.55-.242,0.96-2.4,0.28-.2h3.66l0.79,2c0.22,0.594-.24.77-0.72,0.77v0.682s2.2-.066,2.87-0.066h0.85l0.09-.55c-0.57-.088-0.89-0.176-1.39-1.518l-3.44-8.67-0.88.2-3.74,9.066a1.33,1.33,0,0,1-1.2.9v0.572Zm5.36-7.086,1.09,2.861h-3.21l1.68-4.2C5076.03,40.671,5076.21,41.2,5076.36,41.6Zm6.49,7.151s1.78-.066,2.76-0.066h5.23l0.68-3.015h-0.7c-0.83,1.628-1.16,2.222-2.51,2.222h-2.39a5.387,5.387,0,0,0,.08-0.9V40.517a4.475,4.475,0,0,1,.53-2.443l-0.09-.088a13.192,13.192,0,0,1-2.09.088h-1.53v0.484c1.33,0.308,1.33.506,1.33,1.474V46.81a1.283,1.283,0,0,1-1.3,1.3v0.638Zm-74.31,20.934h4.03l0.09-.616-1.85-.264,1.5-3.961,0.29-.22h5.2l1.33,3.521c0.24,0.66-.31.836-0.92,0.858v0.748s2.51-.066,3.32-0.066h0.93l0.09-.594c-0.68-.11-1.07-0.22-1.66-1.716l-4.83-12.5-0.89.2L5010,68.052a1.551,1.551,0,0,1-1.46.99v0.638Zm7.04-11,1.87,5.017h-4.72l2.41-6.359A12.921,12.921,0,0,0,5015.58,58.678Zm7.86,11.068,4.64-.132,0.09-.55-1.66-.2a6.136,6.136,0,0,0,.09-1.056V65.346l0.22-.22h0.91l1.92,2.751a7.865,7.865,0,0,1,.96,1.738l0.06,0.066h2.81l0.09-.66a1.647,1.647,0,0,1-1.53-.924l-2.37-3.389V64.422c0.8-.484,2.05-1.408,2.05-2.795,0-1.32-1.14-2.553-4.21-2.553h-4.09v0.484c1.33,0.308,1.33.506,1.33,1.474V67.81a1.285,1.285,0,0,1-1.31,1.3v0.638Zm3.16-5.413V60.087l0.22-.22h0.45c1.79,0,2.49,1.012,2.49,2.245a2.025,2.025,0,0,1-1.9,2.223h-1.26Zm8.08,5.413s1.78-.066,2.76-0.066h5.12L5043.17,67h-0.7c-0.82,1.65-1.02,1.892-2.41,1.892h-2.31a5.387,5.387,0,0,0,.08-0.9V64.906l0.22-.22h2.48v1.188h0.94V62.859l-0.76.132-0.13.9h-2.75V60.065l0.22-.2h1.81c1.31,0,1.83.264,1.76,1.914h0.7l0.52-2.773a11.839,11.839,0,0,1-1.24.066h-7.03v0.484c1.17,0.286,1.41.462,1.41,1.188V67.81a1.283,1.283,0,0,1-1.3,1.3v0.638Zm9.42-.066h3.34l0.08-.55-1.54-.242,0.96-2.4,0.28-.2h3.66l0.78,2c0.22,0.594-.24.77-0.72,0.77v0.682s2.2-.066,2.88-0.066h0.85l0.09-.55c-0.57-.088-0.9-0.176-1.4-1.518l-3.44-8.67-0.87.2-3.75,9.066a1.306,1.306,0,0,1-1.2.9v0.572Zm5.36-7.086,1.09,2.861h-3.2l1.68-4.2C5049.14,61.671,5049.31,62.2,5049.46,62.6ZM5061,69.747l5.25-.132,0.09-.616-1.96-.2a5.61,5.61,0,0,0,.11-1.122V63.387l0.22-.22h1.59l2.7,4.027a15.6,15.6,0,0,1,1.35,2.421l0.08,0.066h3.16l0.09-.7-0.24-.022c-0.57-.044-1-0.088-1.94-1.452l-3.13-4.643V62.573c1.04-.55,2.87-1.958,2.87-4.027,0-1.914-1.48-3.543-5.4-3.543h-5.05v0.55c1.67,0.33,1.78.55,1.78,1.606V67.678a1.5,1.5,0,0,1-1.57,1.364v0.7Zm3.49-7.438V56.082l0.22-.22h0.8c2.68,0,3.62,1.584,3.62,3.257a2.937,2.937,0,0,1-2.81,3.191h-1.83Zm10.84,3.653c0,2.971,2.31,3.983,4.51,3.983,2.48,0,4.51-1.32,4.51-4.049V61.363a1.982,1.982,0,0,1,1.24-2.024l-0.09-.264h-3.57v0.55c1.46,0.154,1.48.616,1.48,1.474V65.94a3.117,3.117,0,1,1-6.23-.11V61.517a4.475,4.475,0,0,1,.53-2.443l-0.09-.088a13.192,13.192,0,0,1-2.09.088H5074v0.484c1.33,0.308,1.33.506,1.33,1.474v4.929Zm11.83-1.364c0,3.5,2.76,5.347,6.07,5.347a38.019,38.019,0,0,0,3.86-.4V67.282c0-1.518.65-1.87,0.65-1.87l-0.08-.286h-4.08V65.61c1.61,0.264,1.7.506,1.7,1.452v1.892a6.972,6.972,0,0,1-1.46.154c-2.79,0-4.59-2.046-4.59-4.885,0-2.487,1.37-4.621,4.09-4.621,1.26,0,2.72.374,2.75,2.112h0.61l0.47-2.553a35.712,35.712,0,0,0-3.74-.352C5089.1,58.81,5087.16,61.737,5087.16,64.6Zm12.41,3.741c0,1.144,1.83,1.606,3.31,1.606,2.09,0,3.75-.99,3.75-2.949,0-3.5-5.12-3.345-5.12-5.919a1.554,1.554,0,0,1,1.83-1.474c0.98,0,1.94.418,1.81,2.112h0.69l0.53-2.6a19.85,19.85,0,0,0-2.81-.308c-2.51,0-3.79,1.276-3.79,2.927,0,3.345,5.14,3.389,5.14,5.963,0,1.056-.92,1.452-1.88,1.452-1.11,0-2.33-.484-2.33-2.509h-0.69A8.972,8.972,0,0,0,5099.57,68.338Z" data-name="Natural Area Rugs" class="cls-2" transform="translate(-4960 -31)"/></svg>
