<svg xmlns="http://www.w3.org/2000/svg" viewBox="0 0 146.64 40.95"><defs><style>.cls-1{fill:#5a534c;}.cls-2{fill:#326600;}</style></defs><title>Asset 2</title><g id="Layer_2" data-name="Layer 2"><g id="Layer_1-2" data-name="Layer 1"><path class="cls-1" d="M64.67,5.31,64.56,5H60.43v.62c1.76.18,1.79.68,1.79,1.65v9.15c-.24-.35-.59-.81-.87-1.17l-7.88-9.2a6.74,6.74,0,0,1-.81-1.14S51.54,5,50.47,5h-.65v.55c1.44.26,1.79.7,1.79,2.22v9.9c0,.79-.59,1.25-1.57,1.36v.7l4.29-.13.09-.62-2-.13a6.55,6.55,0,0,0,.11-1.19v-10a12,12,0,0,0,.78,1.06l9.26,11h.57V7.56A2.23,2.23,0,0,1,64.67,5.31Zm4.18,13.82-1.55-.24,1-2.4.28-.2h3.66l.78,2c.22.59-.24.77-.72.77v.68s2.2-.07,2.88-.07H76l.09-.55c-.57-.09-.89-.18-1.39-1.52L71.25,8.94l-.87.2-3.75,9.07a1.32,1.32,0,0,1-1.2.9v.57h3.33Zm1.5-7.88a13.76,13.76,0,0,0,.44,1.34l1.09,2.86h-3.2Zm11.83,6.58V10.09l.22-.22h1.33c1.24,0,1.79.31,1.74,1.94h.68L86.65,9a7.54,7.54,0,0,1-1.18.09H77.58A6.07,6.07,0,0,1,76.5,9L76,11.8h.7c.63-1.63,1.13-1.94,2.2-1.94h1.39v8A1.29,1.29,0,0,1,79,19.11v.64l4.88-.11.07-.57-1.85-.18A5.11,5.11,0,0,0,82.18,17.83ZM95.44,9.07v.55c1.46.15,1.48.62,1.48,1.47v4.84a3.12,3.12,0,1,1-6.23-.11V11.52a4.52,4.52,0,0,1,.52-2.44L91.13,9A13.27,13.27,0,0,1,89,9.07H87.51v.48c1.33.31,1.33.51,1.33,1.47V16c0,3,2.31,4,4.51,4,2.48,0,4.51-1.32,4.51-4V11.36a2,2,0,0,1,1.24-2L99,9.07Zm5.31,10v.64l4.64-.13.09-.55-1.66-.2a6.33,6.33,0,0,0,.09-1.06V15.35l.22-.22H105L107,17.88a7.87,7.87,0,0,1,1,1.74l.07.07h2.81l.09-.66a1.65,1.65,0,0,1-1.52-.92L107,14.71v-.29c.81-.48,2-1.41,2-2.79s-1.13-2.55-4.2-2.55h-4.09v.48c1.33.31,1.33.51,1.33,1.47v6.78A1.28,1.28,0,0,1,100.75,19.11Zm3.16-9,.22-.22h.46c1.79,0,2.48,1,2.48,2.24a2,2,0,0,1-1.9,2.22h-1.26Zm10.52,9-1.55-.24,1-2.4.28-.2h3.66l.78,2c.22.59-.24.77-.72.77v.68s2.2-.07,2.88-.07h.85l.09-.55c-.57-.09-.89-.18-1.39-1.52l-3.44-8.67-.87.2-3.75,9.07a1.32,1.32,0,0,1-1.2.9v.57h3.33Zm1.5-7.88a13.76,13.76,0,0,0,.44,1.34l1.09,2.86h-3.2Zm15.59,5.41h-.7c-.83,1.63-1.15,2.22-2.5,2.22h-2.4A5,5,0,0,0,126,18V11.52a4.52,4.52,0,0,1,.52-2.44L126.45,9a13.27,13.27,0,0,1-2.09.09h-1.52v.48c1.33.31,1.33.51,1.33,1.47v6.78a1.28,1.28,0,0,1-1.31,1.3v.64s1.79-.07,2.77-.07h5.23ZM60.91,38.37l-4.84-12.5-.89.2L50,39.05a1.56,1.56,0,0,1-1.46,1v.64h4l.09-.62-1.85-.26,1.5-4,.28-.22h5.21l1.33,3.52c.24.66-.3.84-.91.86v.75s2.5-.07,3.31-.07h.94l.09-.59C61.89,40,61.49,39.87,60.91,38.37ZM52.74,34.7l2.42-6.36a13.52,13.52,0,0,0,.44,1.34l1.87,5Zm19.32,4.4-2.37-3.39v-.29c.81-.48,2-1.41,2-2.79s-1.13-2.55-4.2-2.55H63.43v.48c1.33.31,1.33.51,1.33,1.47v6.78a1.28,1.28,0,0,1-1.31,1.3v.64l4.64-.13.09-.55-1.66-.2a6.33,6.33,0,0,0,.09-1.06V36.35l.22-.22h.91l1.92,2.75a7.87,7.87,0,0,1,1,1.74l.07.07h2.81l.09-.66A1.65,1.65,0,0,1,72.05,39.1Zm-4.18-3.76H66.61V31.09l.22-.22h.46c1.79,0,2.48,1,2.48,2.24A2,2,0,0,1,67.87,35.33Zm12.19,4.55H77.76a5,5,0,0,0,.09-.9V35.91l.22-.22h2.48v1.19h.94v-3l-.76.13-.13.9H77.85V31.06l.22-.2h1.81c1.31,0,1.83.26,1.76,1.91h.7L82.86,30a12,12,0,0,1-1.24.07h-7v.48c1.18.29,1.42.46,1.42,1.19v7.06a1.28,1.28,0,0,1-1.31,1.3v.64s1.79-.07,2.77-.07h5.12L83.18,38h-.7C81.66,39.65,81.46,39.89,80.07,39.89Zm13.31-1.28-3.44-8.67-.87.2-3.75,9.07a1.31,1.31,0,0,1-1.2.9v.57h3.33l.09-.55L86,39.89l1-2.4.28-.2h3.66l.78,2c.22.59-.24.77-.72.77v.68s2.2-.07,2.88-.07h.85l.09-.55C94.2,40,93.87,40,93.37,38.61Zm-6-2.16L89,32.25a13.81,13.81,0,0,0,.44,1.34l1.09,2.86Zm24.15,2-3.14-4.64v-.29c1-.55,2.88-2,2.88-4,0-1.91-1.48-3.54-5.4-3.54H100.8v.55c1.68.33,1.79.55,1.79,1.61V38.68c0,.75-.61,1.25-1.57,1.36v.7l5.25-.13.09-.62-2-.2a5.66,5.66,0,0,0,.11-1.12V34.39l.22-.22h1.59l2.7,4a15.32,15.32,0,0,1,1.35,2.42l.09.07h3.16l.09-.7-.24,0C112.89,39.91,112.45,39.87,111.51,38.5Zm-5.18-5.19H104.5V27.08l.22-.22h.81c2.68,0,3.62,1.58,3.62,3.26A2.94,2.94,0,0,1,106.33,33.31Zm15.61-3.23v.55c1.46.15,1.48.62,1.48,1.47v4.84a3.12,3.12,0,1,1-6.23-.11V32.52a4.52,4.52,0,0,1,.52-2.44l-.09-.09a13.27,13.27,0,0,1-2.09.09H114v.48c1.33.31,1.33.51,1.33,1.47V37c0,3,2.31,4,4.51,4,2.48,0,4.51-1.32,4.51-4V32.36a2,2,0,0,1,1.24-2l-.09-.26Zm11.65,6.05v.48c1.61.26,1.7.51,1.7,1.45V40a7,7,0,0,1-1.46.15c-2.79,0-4.6-2-4.6-4.89,0-2.49,1.37-4.62,4.09-4.62,1.26,0,2.72.37,2.74,2.11h.61l.48-2.55a36,36,0,0,0-3.75-.35c-4.31,0-6.25,2.93-6.25,5.79,0,3.5,2.77,5.35,6.08,5.35a38,38,0,0,0,3.86-.4V38.28c0-1.52.65-1.87.65-1.87l-.09-.29Zm7.93-4c0-1,.76-1.47,1.83-1.47s1.94.42,1.81,2.11h.7l.52-2.6a19.77,19.77,0,0,0-2.81-.31c-2.5,0-3.79,1.28-3.79,2.93,0,3.34,5.14,3.39,5.14,6,0,1.06-.91,1.45-1.87,1.45-1.11,0-2.33-.48-2.33-2.51H140a8.66,8.66,0,0,0-.44,1.69c0,1.14,1.83,1.61,3.31,1.61,2.09,0,3.75-1,3.75-2.95C146.64,34.5,141.52,34.65,141.52,32.08Z"/><path class="cls-2" d="M44.11,7.78C36.62,12.5,27.74,30.27,27.74,30.27,40.5,18.33,44.11,7.78,44.11,7.78ZM41.34,18.61c-4.16,3.33-14.7,13.33-14.7,13.33C34.68,28.6,41.34,18.61,41.34,18.61ZM27.19,32.77a63.3,63.3,0,0,0,20-14.16C42.44,23,27.19,32.77,27.19,32.77Zm3.05-10.28c3.05-5.83,1.94-15.55,1.94-15.55S28.57,17.49,28,22.49a34.81,34.81,0,0,1-2.22,8.89S27.19,28.33,30.24,22.49Zm-4.72,8.05C28.57,20.27,25.8,0,25.8,0,22.47,10,25,29.16,25,29.16ZM19.7,12.22C18.86,22.49,25,33,25,33,22.75,15,19.7,12.22,19.7,12.22ZM11.1,5c1.11,13.61,11.1,25.55,11.1,25.55C19.14,18.88,11.1,5,11.1,5ZM21.92,31.38C13,18.61,5.27,15,5.27,15,9.15,22.49,21.92,31.38,21.92,31.38ZM0,20S4.44,26.1,22.75,32.77ZM22.75,40h5L28,34.16H22.19Z"/></g></g></svg>
