<svg xmlns="http://www.w3.org/2000/svg" viewBox="0 0 397.79 49.99"><defs><style>.cls-1{fill:#5a534c;}.cls-2{fill:#326600;}</style></defs><title>Asset 1</title><g id="Layer_2" data-name="Layer 2"><g id="Layer_1-2" data-name="Layer 1"><path class="cls-1" d="M81.16,17.43v1.12c3.21.32,3.25,1.24,3.25,3V38.18c-.44-.64-1.07-1.48-1.58-2.12L68.48,19.35A12.24,12.24,0,0,1,67,17.27s-2,.16-4,.16H61.87v1c2.61.48,3.25,1.28,3.25,4v18c0,1.44-1.07,2.28-2.85,2.48v1.28l7.8-.24.16-1.12-3.56-.24a11.89,11.89,0,0,0,.2-2.16V22.31a21.84,21.84,0,0,0,1.43,1.92L85.12,44.3h1V22.07A4.06,4.06,0,0,1,88.88,18l-.2-.56ZM107.1,40.34l-6.26-15.76-1.58.36L92.45,41.42a2.39,2.39,0,0,1-2.18,1.64v1h6.06l.16-1-2.81-.44,1.74-4.36.51-.36h6.65L104,41.58c.4,1.08-.44,1.4-1.31,1.4v1.24s4-.12,5.23-.12h1.54l.16-1C108.61,42.94,108,42.78,107.1,40.34ZM96.17,36.42l3-7.64a25,25,0,0,0,.79,2.44l2,5.2Zm16.2-11.6a11,11,0,0,1-2-.16l-.91,5.12h1.27c1.15-3,2.06-3.52,4-3.52h2.53V40.74a2.35,2.35,0,0,1-2.38,2.32v1.16l8.87-.2.12-1-3.37-.32a9.28,9.28,0,0,0,.2-1.92V26.67l.4-.4h2.42c2.26,0,3.25.56,3.17,3.52h1.23l.91-5.12a13.69,13.69,0,0,1-2.14.16Zm32.48,0v1c2.65.28,2.69,1.12,2.69,2.68v8.8A5.48,5.48,0,0,1,141.88,43c-2.81,0-5.66-1.76-5.66-5.92V29.27a8.22,8.22,0,0,1,1-4.44l-.16-.16a24.12,24.12,0,0,1-3.8.16h-2.77v.88c2.42.56,2.42.92,2.42,2.68v9c0,5.4,4.2,7.24,8.2,7.24,4.52,0,8.2-2.4,8.2-7.36V29a3.6,3.6,0,0,1,2.26-3.68l-.16-.48Zm25.31,16.4-4.32-6.16v-.52c1.47-.88,3.72-2.56,3.72-5.08s-2.06-4.64-7.64-4.64h-7.45v.88c2.42.56,2.42.92,2.42,2.68V40.7a2.33,2.33,0,0,1-2.38,2.36v1.16l8.44-.24.16-1-3-.36a11.5,11.5,0,0,0,.16-1.92V36.22l.4-.4h1.66l3.49,5A14.3,14.3,0,0,1,167.54,44l.12.12h5.11l.16-1.2C172,42.82,171.27,42.82,170.16,41.22Zm-7.6-6.84h-2.3V26.67l.4-.4h.83c3.25,0,4.52,1.84,4.52,4.08C166,33.06,164.14,34.38,162.55,34.38Zm27.45,6-6.26-15.76-1.58.36-6.81,16.48a2.39,2.39,0,0,1-2.18,1.64v1h6.06l.16-1-2.81-.44,1.74-4.36.51-.36h6.65l1.43,3.64c.4,1.08-.44,1.4-1.31,1.4v1.24s4-.12,5.23-.12h1.54l.16-1C191.51,42.94,190.91,42.78,190,40.34Zm-10.93-3.92,3-7.64a25,25,0,0,0,.79,2.44l2,5.2Zm25.59,6.24H200.3a9,9,0,0,0,.16-1.64V29.27a8.22,8.22,0,0,1,1-4.44l-.16-.16a24.12,24.12,0,0,1-3.8.16h-2.77v.88c2.42.56,2.42.92,2.42,2.68V40.7a2.33,2.33,0,0,1-2.38,2.36v1.16s3.25-.12,5-.12h9.51l1.23-5.48h-1.27C207.71,41.58,207.11,42.66,204.66,42.66Zm37.19-2.76-8.79-22.71-1.62.36L222,41.14a2.84,2.84,0,0,1-2.65,1.8V44.1h7.33l.16-1.12-3.37-.48,2.73-7.2.51-.4h9.47l2.42,6.4c.44,1.2-.55,1.52-1.66,1.56v1.36s4.55-.12,6-.12h1.7l.16-1.08C243.63,42.82,242.92,42.62,241.85,39.9ZM227,33.22l4.4-11.56a24.57,24.57,0,0,0,.79,2.44l3.41,9.12Zm35.13,8-4.32-6.16v-.52c1.47-.88,3.72-2.56,3.72-5.08s-2.06-4.64-7.64-4.64h-7.45v.88c2.42.56,2.42.92,2.42,2.68V40.7a2.33,2.33,0,0,1-2.38,2.36v1.16l8.44-.24.16-1-3-.36a11.5,11.5,0,0,0,.16-1.92V36.22l.4-.4h1.66l3.49,5A14.3,14.3,0,0,1,259.51,44l.12.12h5.11l.16-1.2C263.95,42.82,263.24,42.82,262.13,41.22Zm-7.6-6.84h-2.3V26.67l.4-.4h.83c3.25,0,4.52,1.84,4.52,4.08C258,33.06,256.11,34.38,254.52,34.38Zm22.18,8.28h-4.2a9,9,0,0,0,.16-1.64v-5.6l.4-.4h4.52v2.16h1.7V31.7l-1.39.24-.24,1.64h-5v-7l.4-.36h3.29c2.38,0,3.33.48,3.21,3.48h1.27l1-5a21.83,21.83,0,0,1-2.26.12H266.72v.88c2.14.52,2.57.84,2.57,2.16V40.7a2.33,2.33,0,0,1-2.38,2.36v1.16s3.25-.12,5-.12h9.31l1.11-4.88H281.1C279.59,42.22,279.24,42.66,276.7,42.66Zm24.2-2.32-6.26-15.76-1.58.36-6.81,16.48a2.39,2.39,0,0,1-2.18,1.64v1h6.06l.16-1-2.81-.44,1.74-4.36.51-.36h6.65l1.43,3.64c.4,1.08-.44,1.4-1.31,1.4v1.24s4-.12,5.23-.12h1.54l.16-1C302.41,42.94,301.81,42.78,300.9,40.34ZM290,36.42l3-7.64a25,25,0,0,0,.79,2.44l2,5.2Zm43.93,3.72-5.7-8.44v-.52c1.9-1,5.23-3.56,5.23-7.32,0-3.48-2.69-6.44-9.82-6.44h-9.19v1c3,.6,3.25,1,3.25,2.92V40.46c0,1.36-1.11,2.28-2.85,2.48v1.28l9.55-.24.16-1.12-3.56-.36a10.29,10.29,0,0,0,.2-2v-7.8l.4-.4h2.89l4.91,7.32A27.85,27.85,0,0,1,331.8,44l.16.12h5.74l.16-1.28-.44,0C336.39,42.7,335.6,42.62,333.9,40.14Zm-9.43-9.44h-3.33V19.39l.4-.4H323c4.87,0,6.57,2.88,6.57,5.92C329.58,28.79,326.85,30.71,324.47,30.71Zm28.4-5.88v1c2.65.28,2.69,1.12,2.69,2.68v8.8A5.48,5.48,0,0,1,349.9,43c-2.81,0-5.66-1.76-5.66-5.92V29.27a8.22,8.22,0,0,1,1-4.44l-.16-.16a24.12,24.12,0,0,1-3.8.16h-2.77v.88c2.42.56,2.42.92,2.42,2.68v9c0,5.4,4.2,7.24,8.2,7.24,4.52,0,8.2-2.4,8.2-7.36V29a3.6,3.6,0,0,1,2.26-3.68l-.16-.48Zm21.19,11v.88c2.93.48,3.09.92,3.09,2.64v3.44a12.75,12.75,0,0,1-2.65.28c-5.07,0-8.36-3.72-8.36-8.88,0-4.52,2.5-8.4,7.45-8.4,2.3,0,5,.68,5,3.84h1.11l.87-4.64a65.5,65.5,0,0,0-6.81-.64c-7.84,0-11.37,5.32-11.37,10.52,0,6.36,5,9.72,11.05,9.72a69.08,69.08,0,0,0,7-.72V39.74c0-2.76,1.19-3.4,1.19-3.4l-.16-.52Zm14.42-7.36c0-1.76,1.39-2.68,3.33-2.68,1.78,0,3.53.76,3.29,3.84h1.27l1-4.72a36,36,0,0,0-5.11-.56c-4.55,0-6.89,2.32-6.89,5.32,0,6.08,9.35,6.16,9.35,10.84,0,1.92-1.66,2.64-3.41,2.64-2,0-4.24-.88-4.24-4.56h-1.27a15.73,15.73,0,0,0-.79,3.08c0,2.08,3.33,2.92,6,2.92,3.8,0,6.81-1.8,6.81-5.36C397.79,32.86,388.48,33.14,388.48,28.47Z"/><path class="cls-2" d="M55.17,9.72C45.8,15.62,34.7,37.84,34.7,37.84,50.66,22.91,55.17,9.72,55.17,9.72ZM51.7,23.26c-5.2,4.17-18.39,16.66-18.39,16.66C43.37,35.75,51.7,23.26,51.7,23.26ZM34,41a79.15,79.15,0,0,0,25-17.7C53.09,28.81,34,41,34,41Zm3.82-12.84c3.82-7.29,2.43-19.44,2.43-19.44S35.74,21.87,35,28.12a43.5,43.5,0,0,1-2.78,11.11S34,35.41,37.82,28.12Zm-5.9,10.07C35.74,25.34,32.27,0,32.27,0c-4.16,12.5-1,36.45-1,36.45ZM24.64,15.27c-1,12.84,6.59,26,6.59,26C28.45,18.74,24.64,15.27,24.64,15.27Zm-10.76-9c1.39,17,13.88,31.94,13.88,31.94C23.94,23.6,13.88,6.25,13.88,6.25Zm13.53,33c-11.1-16-20.82-20.48-20.82-20.48C11.45,28.12,27.41,39.22,27.41,39.22ZM0,25s5.55,7.64,28.45,16ZM28.45,50H34.7L35,42.7H27.76Z"/></g></g></svg>
