<svg xmlns="http://www.w3.org/2000/svg" viewBox="0 0 112.4 103.81"><defs><style>.cls-1{fill:#5a534c;}</style></defs><title>icon-cart</title><g id="Layer_2" data-name="Layer 2"><g id="icons"><path class="cls-1" d="M97.82,64.35a4.08,4.08,0,0,0,1.32-.3,3.51,3.51,0,0,0,2.34-2.49l10.75-37a3.4,3.4,0,0,0-.81-3.49,3.48,3.48,0,0,0-2.86-1.32H24.07L19.44,2.79A3.58,3.58,0,0,0,18.06.73,3.62,3.62,0,0,0,15.78,0H3.68c-4.9,0-4.9,7.6,0,7.6h9.2L32.37,79a12.83,12.83,0,1,0,16.3,6.72H77.1a12.82,12.82,0,1,0,12.09-7.57,4.6,4.6,0,0,0-.53,0H40L37.22,67.94Z"/></g></g></svg>
