<svg xmlns="http://www.w3.org/2000/svg" viewBox="0 0 34.38 34.38"><path d="M10.11 0A10.15 10.15 0 0 0 0 10.11v14.16a10.15 10.15 0 0 0 10.11 10.11h14.16a10.15 10.15 0 0 0 10.11-10.11V10.11A10.15 10.15 0 0 0 24.27 0zm0 3.13h14.16a7 7 0 0 1 7 7v14.14a7 7 0 0 1-7 7H10.11a7 7 0 0 1-7-7V10.11a7 7 0 0 1 7-6.98zm16.31 3.41A1.42 1.42 0 1 0 27.83 8a1.41 1.41 0 0 0-1.41-1.46zm-9.23 1.27a9.38 9.38 0 1 0 9.37 9.38 9.41 9.41 0 0 0-9.37-9.38zm0 3.13a6.25 6.25 0 1 1-6.25 6.25 6.22 6.22 0 0 1 6.25-6.25z" data-name="Layer 1"/></svg>
