<svg xmlns="http://www.w3.org/2000/svg" viewBox="0 0 46 32"><defs><style>.cls-1{fill:#5a534c;}</style></defs><g id="Layer_2" data-name="Layer 2"><path id="Layer_1-2" d="M46 22.32l-1.37-.55-.28-.11c-2.79-1-6.12-.9-9.35-.8a44.53 44.53 0 0 1-5.56 0l5.34-2.42a9.39 9.39 0 0 0 4.89-5.29A9 9 0 0 0 39.3 6a10.69 10.69 0 0 0-9.53-6 10.29 10.29 0 0 0-3.5.62l-20.4 9.7v.09a10.48 10.48 0 0 0-3.06 2.36A11.21 11.21 0 0 0 4 28.83c3.06 2.61 7.53 2.46 11.86 2.31 3.2-.11 6.5-.22 9.09.81a.67.67 0 0 0 .25 0 .66.66 0 0 0 .27-.08zM26.66 1.86l.11-.05a8.91 8.91 0 0 1 3-.52 9.37 9.37 0 0 1 8.34 5.27 7.77 7.77 0 0 1 .32 6.13 8.1 8.1 0 0 1-4.22 4.56L19.41 24c.08-.11.14-.23.21-.35l.18-.29c.1-.17.19-.35.27-.53l.13-.26c.09-.21.18-.43.25-.65l.06-.17q.14-.42.24-.85v-.08c.06-.26.1-.52.14-.78v-2.08s0-.33-.06-.5 0-.24-.07-.37-.07-.32-.11-.48-.07-.25-.1-.37-.1-.31-.15-.46l-.14-.36c-.06-.15-.13-.3-.2-.45l-.17-.35c-.08-.15-.16-.29-.25-.44l-.2-.33c-.1-.15-.2-.29-.3-.43l-.22-.3c-.12-.15-.26-.3-.39-.45l-.21-.24q-.31-.32-.66-.62c-.25-.21-.5-.4-.76-.59l-.29-.22-.46-.29-.44-.24-.38-.19-.52-.28-.35-.13-.55-.18-.36-.1-.55-.13-.44-.08-.49-.08c-.31 0-.62-.06-.93-.07zm-10.85 28c-4.26.14-8.28.28-11-2a10 10 0 0 1-1-14.24 9.16 9.16 0 0 1 3.3-2.36q.34-.14.69-.26l.23-.07.66-.17.31-.07.59-.09h2.26l.44.06.38.07.49.11.31.09.51.16.28.11.5.21.3.15.44.23.38.24.33.21c.23.16.46.34.68.53s.24.23.36.34l.24.23a8 8 0 0 1 1.85 3.15c0 .09.06.18.09.27v.06a7.92 7.92 0 0 1-1.75 7.31 7.32 7.32 0 0 1-.71.69l-.2.17a7.21 7.21 0 0 1-.79.55l-.11.06-1.27.57a7.46 7.46 0 0 1-7.3-1.37 6.31 6.31 0 0 1-.64-9 5.92 5.92 0 0 1 8.21-.56 5 5 0 0 1 .51 7.14 4.66 4.66 0 0 1-6.48.44 3.93 3.93 0 0 1-.4-5.62A3.6 3.6 0 0 1 11 16a3.64 3.64 0 0 1 1.61.25l-3.2 1.06a.66.66 0 0 0-.44.22 3.26 3.26 0 0 0-.84 2.59 3.77 3.77 0 0 0 1.35 2.37 3.71 3.71 0 0 0 5.39-.43 4.33 4.33 0 0 0-.44-6.19 5 5 0 0 0-6.92.47A5.19 5.19 0 0 0 8 23.76a6 6 0 0 0 8.33-.57 6.26 6.26 0 0 0-.64-9 7.25 7.25 0 0 0-10.06.69 7.58 7.58 0 0 0 .77 10.85 8.8 8.8 0 0 0 8.6 1.64h.09l.37-.15.42-.18.3-.15.36-.18 10.8-4.89a31.66 31.66 0 0 0 7.74.36 31 31 0 0 1 7.55.34l-17.48 8.14c-2.79-1.01-6.15-.91-9.34-.8zm-2-12.7a3.06 3.06 0 0 1 0 4.07 2.36 2.36 0 0 1-3.54.31A2.5 2.5 0 0 1 9.44 20a1.94 1.94 0 0 1 .4-1.44z" class="cls-1" data-name="Layer 1"/></g></svg>
