<svg xmlns="http://www.w3.org/2000/svg" viewBox="0 0 38.5 27.51"><defs><style>.cls-1{fill:none;stroke:#5a534c;stroke-miterlimit:10;stroke-width:1.5px;fill-rule:evenodd;}</style></defs><g id="Layer_2" data-name="Layer 2"><path id="Layer_1-2" d="M1.95.75h21.51a1.19 1.19 0 0 1 1.2 1.18V17.3a1.19 1.19 0 0 1-1.2 1.18H1.95a1.19 1.19 0 0 1-1.2-1.18V1.93A1.19 1.19 0 0 1 1.95.75zm26.36 4.73s2.84.08 3.51 0c1.79 0 2.39 2.37 2.39 2.37l2.54 4.65a6.55 6.55 0 0 1 1 2.22v7.38a1.06 1.06 0 0 1-1.07 1.11c-1.19 0-1.27-1.33-1.27-1.33 0-3.18-3.51-3.44-3.51-3.44h-3.66c-2.24 0-2.32-2.4-2.32-2.4l-.07-8.35a2.23 2.23 0 0 1 2.46-2.21zm2.35 14.21a3.44 3.44 0 0 1 3.52 3.49 3.52 3.52 0 0 1-3.52 3.58A3.6 3.6 0 0 1 27 23.17a3.52 3.52 0 0 1 3.67-3.48zm-4.82 0a3.12 3.12 0 0 1-1.19 2.4H10.39a5.5 5.5 0 0 1 1.12-2.4zm-20.28 0A3.51 3.51 0 1 1 2 23.17a3.53 3.53 0 0 1 3.57-3.51z" class="cls-1" data-name="Layer 1"/></g></svg>
