<svg xmlns="http://www.w3.org/2000/svg" viewBox="0 0 37.5 37.5"><path d="M18.75 0A18.75 18.75 0 1 0 37.5 18.75 18.77 18.77 0 0 0 18.75 0zm0 .88A17.87 17.87 0 1 1 .88 18.75 17.88 17.88 0 0 1 18.75.88zm0 1.81A16 16 0 0 0 5.32 9.91h1c1.68 0 4.29-.19 4.29-.19a.66.66 0 0 1 .1 1.32s-.88.14-1.85.19l5.86 17.38 3.51-10.54-2.49-6.84c-.87-.05-1.71-.19-1.71-.19a.66.66 0 0 1 .1-1.32s2.67.19 4.25.19 4.3-.19 4.3-.19A.66.66 0 0 1 22.8 11s-.89.14-1.85.19l5.81 17.29 1.61-5.38a15.12 15.12 0 0 0 1.22-5.22 8.19 8.19 0 0 0-1.32-4.39c-.81-1.33-1.56-2.49-1.56-3.81a2.75 2.75 0 0 1 2.68-2.84h.2a15.94 15.94 0 0 0-10.84-4.15zM32.86 11a12.24 12.24 0 0 1 .14 1.7 15.38 15.38 0 0 1-1.22 5.76l-4.92 14.21a16.07 16.07 0 0 0 8-13.92 15.88 15.88 0 0 0-2-7.75zM4.05 12.21a16.16 16.16 0 0 0 7.67 21zm15 8l-4.83 14a16.69 16.69 0 0 0 9.86-.24c0-.07-.06-.17-.1-.25z" data-name="Layer 1"/></svg>
