<svg xmlns="http://www.w3.org/2000/svg" viewBox="0 0 31.25 37.5"><path d="M5.91 0L8.5 8.5V14h2.15V8.2L13.18 0H11L9.62 5.62h-.1L8.11 0zM16 3.42a3 3 0 0 0-2.1.73 2.44 2.44 0 0 0-.78 1.9v5.38a2.89 2.89 0 0 0 .78 2.1 2.67 2.67 0 0 0 2 .78 2.61 2.61 0 0 0 2.78-2.84V6.1a2.62 2.62 0 0 0-.73-1.95A2.64 2.64 0 0 0 16 3.42zm4.34.24v8.69a2.28 2.28 0 0 0 .34 1.37 1.19 1.19 0 0 0 1 .44 2 2 0 0 0 1.07-.29 4.39 4.39 0 0 0 1.13-1V14h1.9V3.66h-1.9v7.86a2.75 2.75 0 0 1-.59.59.93.93 0 0 1-.54.19.45.45 0 0 1-.39-.14.94.94 0 0 1-.14-.54v-8zm-4.47 1.56a.9.9 0 0 1 .63.2.64.64 0 0 1 .2.54v5.66a.83.83 0 0 1-.2.64.88.88 0 0 1-.63.24.78.78 0 0 1-.59-.24.91.91 0 0 1-.19-.64V6a.7.7 0 0 1 .19-.54.83.83 0 0 1 .59-.24zm-.24 11.24c-3.72 0-7.33 0-10.89.19A4.54 4.54 0 0 0 .2 21.14C.05 23.09 0 25.05 0 27s0 3.86.2 5.81a4.53 4.53 0 0 0 4.54 4.49c3.56.15 7.17.21 10.89.2s7.33 0 10.88-.2a4.54 4.54 0 0 0 4.55-4.49c.14-2 .2-3.86.19-5.81s0-3.91-.19-5.86a4.55 4.55 0 0 0-4.55-4.49c-3.51-.15-7.17-.2-10.88-.19zM2.44 19.68H9a.19.19 0 0 1 .2.19v2a.19.19 0 0 1-.2.19H7v11.63a.19.19 0 0 1-.19.2H4.64a.22.22 0 0 1-.24-.2V22.07h-2c-.11 0-.24-.08-.24-.19v-2c.04-.12.17-.2.28-.2zm13.77 0h1.91c.11 0 .24.08.24.19v3.91a2.54 2.54 0 0 1 .49-.34 2 2 0 0 1 1-.3 1.72 1.72 0 0 1 1.52.74 3.5 3.5 0 0 1 .54 2.05v5.66a2.89 2.89 0 0 1-.49 1.81 1.74 1.74 0 0 1-1.47.63 2.37 2.37 0 0 1-1.07-.24 2.54 2.54 0 0 1-.49-.34v.24a.23.23 0 0 1-.24.2h-1.94a.19.19 0 0 1-.19-.2V19.87a.18.18 0 0 1 .19-.19zM26 23a2.79 2.79 0 0 1 2.15.88 3.35 3.35 0 0 1 .78 2.34v2.64c0 .11-.13.19-.25.19h-3.44v1.71a2 2 0 0 0 .15 1 .54.54 0 0 0 .49.24.61.61 0 0 0 .49-.19 2.11 2.11 0 0 0 .14-1V30a.19.19 0 0 1 .2-.2h1.95a.19.19 0 0 1 .2.2v.78a3.65 3.65 0 0 1-.73 2.49 3 3 0 0 1-2.3.88 2.81 2.81 0 0 1-2.2-.93 3.59 3.59 0 0 1-.78-2.44v-4.56a3.17 3.17 0 0 1 .88-2.29A3 3 0 0 1 26 23zm-17 .29h1.9a.22.22 0 0 1 .24.2v7.81c0 .26 0 .35.05.39a.2.2 0 0 0 .2.1 1.12 1.12 0 0 0 .44-.2 2.25 2.25 0 0 0 .49-.44v-7.66a.19.19 0 0 1 .19-.2h1.91a.19.19 0 0 1 .19.2v10.2a.23.23 0 0 1-.24.2h-1.92a.19.19 0 0 1-.19-.2v-.58a4 4 0 0 1-.78.58 2.41 2.41 0 0 1-1.23.34 1.27 1.27 0 0 1-1.12-.53 2.45 2.45 0 0 1-.39-1.5v-8.51a.19.19 0 0 1 .2-.2zm10 1.91a.69.69 0 0 0-.44.09 1.06 1.06 0 0 0-.24.2v6.2a1.14 1.14 0 0 0 .29.24.88.88 0 0 0 .39.07c.25 0 .32-.06.35-.1a1 1 0 0 0 .09-.58V26a1.08 1.08 0 0 0-.14-.64.48.48 0 0 0-.3-.16zm6.84 0a.57.57 0 0 0-.49.2 1.33 1.33 0 0 0-.15.78v.83h1.27v-.83a1.27 1.27 0 0 0-.19-.78.5.5 0 0 0-.4-.16z" data-name="Layer 1"/></svg>
